<?xml version="1.0" standalone="no"?>
<!DOCTYPE svg PUBLIC "-//W3C//DTD SVG 20010904//EN"
 "http://www.w3.org/TR/2001/REC-SVG-20010904/DTD/svg10.dtd">
<svg version="1.0" xmlns="http://www.w3.org/2000/svg"
 width="150.000000pt" height="150.000000pt" viewBox="0 0 150.000000 150.000000"
 preserveAspectRatio="xMidYMid meet">

<g transform="translate(0.000000,150.000000) scale(0.100000,-0.100000)"
fill="#000000" stroke="none">
<path d="M337 1023 c-12 -11 -8 -21 13 -26 19 -5 20 -14 20 -206 0 -190 -1
-201 -20 -211 -41 -22 -19 -30 80 -30 118 0 160 14 190 62 43 68 3 197 -65
214 l-25 6 25 30 c43 51 27 119 -35 150 -35 18 -169 26 -183 11z m156 -34 c30
-16 37 -28 37 -70 0 -48 -26 -71 -77 -67 l-38 3 -3 58 c-4 81 23 106 81 76z
m47 -197 c38 -28 51 -61 46 -112 -6 -63 -48 -100 -115 -100 -60 0 -61 3 -61
120 0 69 4 92 17 105 20 21 76 14 113 -13z"/>
<path d="M707 1006 c-31 -29 -42 -64 -33 -111 5 -26 27 -56 81 -110 79 -80 95
-116 73 -162 -33 -70 -112 -62 -136 15 -18 56 -32 53 -32 -8 0 -42 4 -52 25
-66 65 -42 152 -18 181 51 30 71 7 129 -90 229 -57 58 -67 73 -64 99 7 68 97
77 118 12 13 -41 30 -37 30 6 0 67 -98 96 -153 45z"/>
<path d="M899 1013 c-7 -8 -4 -15 10 -23 20 -10 21 -19 21 -206 0 -189 -1
-196 -20 -201 -39 -10 -13 -28 43 -30 42 -2 57 1 57 11 0 8 -7 16 -15 20 -23
9 -21 132 4 169 l18 28 57 -95 c57 -96 97 -139 125 -134 22 4 24 25 3 30 -17
5 -152 226 -152 250 0 18 82 149 103 163 27 19 16 29 -34 30 -46 1 -59 -10
-33 -29 16 -12 14 -19 -31 -97 -80 -139 -75 -138 -75 -17 0 99 2 107 21 113
11 4 18 12 16 18 -5 15 -106 15 -118 0z"/>
</g>
</svg>
